<svg width="60" height="60" viewBox="0 0 60 60" fill="none" xmlns="http://www.w3.org/2000/svg">
<g clip-path="url(#clip0_260_373)">
<g opacity="0.4" filter="url(#filter0_f_260_373)">
<ellipse cx="50.174" cy="41.0001" rx="7.87373" ry="9.24307" transform="rotate(-150 50.174 41.0001)" fill="#F0A056"/>
</g>
<g opacity="0.5" filter="url(#filter1_f_260_373)">
<ellipse cx="50.174" cy="41" rx="1.94737" ry="2.38012" transform="rotate(-150 50.174 41)" fill="#F0A056"/>
</g>
<g filter="url(#filter2_d_260_373)">
<path d="M32.419 24.3267L26.9761 33.7542L50.6042 41.1109L32.419 24.3267Z" fill="#9078A3"/>
<ellipse cx="30.0697" cy="29.2924" rx="15.5604" ry="18.666" transform="rotate(-150 30.0697 29.2924)" fill="url(#paint0_radial_260_373)"/>
<path d="M33.258 16.2439C38.3798 19.201 39.6587 26.5746 36.1146 32.7133C32.5704 38.852 25.5452 41.4312 20.4234 38.4741L20.1962 38.0741C19.1061 36.1544 17.6992 34.4331 16.0349 32.9828V32.9828L26.3081 15.189V15.189C28.3962 15.9052 30.5905 16.263 32.798 16.2472L33.258 16.2439Z" fill="url(#paint1_linear_260_373)"/>
<ellipse cx="19.1142" cy="22.9318" rx="10.7085" ry="12.8346" transform="rotate(-150 19.1142 22.9318)" fill="url(#paint2_linear_260_373)"/>
<ellipse cx="16.622" cy="21.4931" rx="10.7085" ry="12.8346" transform="rotate(-150 16.622 21.4931)" fill="url(#paint3_radial_260_373)"/>
</g>
</g>
<defs>
<filter id="filter0_f_260_373" x="35.9358" y="26.0776" width="28.4766" height="29.8448" filterUnits="userSpaceOnUse" color-interpolation-filters="sRGB">
<feFlood flood-opacity="0" result="BackgroundImageFix"/>
<feBlend mode="normal" in="SourceGraphic" in2="BackgroundImageFix" result="shape"/>
<feGaussianBlur stdDeviation="3" result="effect1_foregroundBlur_260_373"/>
</filter>
<filter id="filter1_f_260_373" x="47.1099" y="37.7198" width="6.12842" height="6.5603" filterUnits="userSpaceOnUse" color-interpolation-filters="sRGB">
<feFlood flood-opacity="0" result="BackgroundImageFix"/>
<feBlend mode="normal" in="SourceGraphic" in2="BackgroundImageFix" result="shape"/>
<feGaussianBlur stdDeviation="0.5" result="effect1_foregroundBlur_260_373"/>
</filter>
<filter id="filter2_d_260_373" x="0.343262" y="7.15283" width="53.261" height="46.0837" filterUnits="userSpaceOnUse" color-interpolation-filters="sRGB">
<feFlood flood-opacity="0" result="BackgroundImageFix"/>
<feColorMatrix in="SourceAlpha" type="matrix" values="0 0 0 0 0 0 0 0 0 0 0 0 0 0 0 0 0 0 127 0" result="hardAlpha"/>
<feOffset dx="-1" dy="2"/>
<feGaussianBlur stdDeviation="2"/>
<feComposite in2="hardAlpha" operator="out"/>
<feColorMatrix type="matrix" values="0 0 0 0 0.941176 0 0 0 0 0.627451 0 0 0 0 0.337255 0 0 0 0.35 0"/>
<feBlend mode="normal" in2="BackgroundImageFix" result="effect1_dropShadow_260_373"/>
<feBlend mode="normal" in="SourceGraphic" in2="effect1_dropShadow_260_373" result="shape"/>
</filter>
<radialGradient id="paint0_radial_260_373" cx="0" cy="0" r="1" gradientUnits="userSpaceOnUse" gradientTransform="translate(30.0981 45.202) rotate(-90.4885) scale(30.4508 25.3844)">
<stop stop-color="#81C287"/>
<stop offset="0.557292" stop-color="#72B078"/>
<stop offset="1" stop-color="#428F49"/>
</radialGradient>
<linearGradient id="paint1_linear_260_373" x1="22.0001" y1="40.5" x2="35.0603" y2="17.2845" gradientUnits="userSpaceOnUse">
<stop stop-color="#32803A"/>
<stop offset="0.734438" stop-color="#72B078"/>
<stop offset="1" stop-color="#91D899"/>
</linearGradient>
<linearGradient id="paint2_linear_260_373" x1="19.1142" y1="10.0972" x2="19.1142" y2="35.7664" gradientUnits="userSpaceOnUse">
<stop stop-color="#297B31"/>
<stop offset="0.832205" stop-color="#72B078"/>
<stop offset="1" stop-color="#8ECC94"/>
</linearGradient>
<radialGradient id="paint3_radial_260_373" cx="0" cy="0" r="1" gradientUnits="userSpaceOnUse" gradientTransform="translate(17.0101 29.9212) rotate(-89.6209) scale(16.8077 14.0235)">
<stop stop-color="#72B078"/>
<stop offset="1" stop-color="#489850"/>
</radialGradient>
<clipPath id="clip0_260_373">
<rect width="60" height="60" fill="white"/>
</clipPath>
</defs>
</svg>
