<svg width="60" height="60" viewBox="0 0 60 60" fill="none" xmlns="http://www.w3.org/2000/svg">
<path d="M42.8891 31.0967C42.8891 32.8309 37.2656 34.2368 30.3286 34.2368C23.3917 34.2368 17.7682 32.8309 17.7682 31.0967C17.7682 29.3624 23.3917 27.9565 30.3286 27.9565C37.2656 27.9565 42.8891 29.3624 42.8891 31.0967Z" fill="#F47373"/>
<path d="M20.2803 14.7681L40.377 14.7681L39.7931 16.0333C37.8354 20.2748 38.3935 25.2523 41.2417 28.9551L42.8891 31.0967L17.7682 31.0967L19.1484 29.4655C22.4835 25.524 23.0669 19.9432 20.6191 15.3972L20.2803 14.7681Z" fill="#F47373"/>
<ellipse cx="30.3286" cy="31.7247" rx="16.3286" ry="3.14011" fill="#F47373"/>
<ellipse cx="30.3286" cy="35.4928" rx="16.3286" ry="3.14011" fill="#F47373"/>
<path d="M14 31.7247L46.6572 31.7247V35.4929L14 35.4929V31.7247Z" fill="#F47373"/>
<ellipse cx="30.3286" cy="15.396" rx="10.0484" ry="3.14011" fill="#F47373"/>
<ellipse cx="30.3286" cy="14.14" rx="10.0484" ry="3.14011" fill="#F47373"/>
<path d="M20.2803 14.14L40.377 14.14V15.3961L20.2803 15.3961V14.14Z" fill="#F47373"/>
<path d="M42.8891 31.0967C42.8891 32.8309 37.2656 34.2368 30.3286 34.2368C23.3917 34.2368 17.7682 32.8309 17.7682 31.0967C17.7682 29.3624 23.3917 27.9565 30.3286 27.9565C37.2656 27.9565 42.8891 29.3624 42.8891 31.0967Z" fill="#F47373"/>
<path d="M20.2803 14.7681L40.377 14.7681L39.7931 16.0333C37.8354 20.2748 38.3935 25.2523 41.2417 28.9551L42.8891 31.0967L17.7682 31.0967L19.1484 29.4655C22.4835 25.524 23.0669 19.9432 20.6191 15.3972L20.2803 14.7681Z" fill="#F47373"/>
<ellipse cx="30.3286" cy="31.7247" rx="16.3286" ry="3.14011" fill="#F47373"/>
<ellipse cx="30.3286" cy="35.4928" rx="16.3286" ry="3.14011" fill="#F47373"/>
<path d="M14 31.7247L46.6572 31.7247V35.4929L14 35.4929V31.7247Z" fill="#F47373"/>
<ellipse cx="30.3286" cy="15.396" rx="10.0484" ry="3.14011" fill="#F47373"/>
<ellipse cx="30.3286" cy="14.14" rx="10.0484" ry="3.14011" fill="#F47373"/>
<path d="M20.2803 14.14L40.377 14.14V15.3961L20.2803 15.3961V14.14Z" fill="#F47373"/>
<path d="M32.8406 38.6331H27.8164L30.3285 52.4496L32.8406 38.6331Z" fill="#9078A2"/>
</svg>
