<svg width="32" height="32" viewBox="0 0 32 32" fill="none" xmlns="http://www.w3.org/2000/svg">
<path d="M19.4627 14.2836C21.0183 10.5349 18.846 5.77303 15.146 4C15.3515 7.14079 12.653 10.2601 11.4459 11.5987C9.80149 13.4224 6.66675 15.55 6.66675 22.0342C6.66675 26.0282 9.77415 28.4366 13.2446 29.3333C9.95566 26.8467 9.85288 19.9066 16.1737 14.5875C14.3237 18.2349 13.6557 23.0474 16.8932 24.2125C18.1265 24.6564 19.4113 23.3513 19.0002 22.0342C20.9529 23.7059 22.0835 27.0713 19.0002 29.2004C23.3521 27.5564 28.1787 22.231 23.2655 14.8408C23.6766 16.8671 22.2377 17.5257 21.2099 17.5257C20.1821 17.5257 18.5376 16.5125 19.4627 14.2836Z" fill="#FF8E8E"/>
</svg>
